<?xml version="1.0" encoding="UTF-8"?>
<!DOCTYPE svg PUBLIC "-//W3C//DTD SVG 1.1//EN" "http://www.w3.org/Graphics/SVG/1.1/DTD/svg11.dtd">
<!-- Creator: CorelDRAW X8 -->
<svg xmlns="http://www.w3.org/2000/svg" xml:space="preserve" width="26.4582mm" height="26.4582mm" version="1.1" style="shape-rendering:geometricPrecision; text-rendering:geometricPrecision; image-rendering:optimizeQuality; fill-rule:evenodd; clip-rule:evenodd"
viewBox="0 0 2646 2646"
 xmlns:xlink="http://www.w3.org/1999/xlink">
 <defs>
  <style type="text/css">
   <![CDATA[
    .fil1 {fill:#E6E6E6}
    .fil0 {fill:#FF6600}
   ]]>
  </style>
 </defs>
 <g id="Layer_x0020_1">
  <metadata id="CorelCorpID_0Corel-Layer"/>
  <path class="fil0" d="M1296 -13c-730,0 -1322,592 -1322,1323 0,730 592,1323 1322,1323 731,0 1323,-593 1323,-1323 0,-731 -592,-1323 -1323,-1323z"/>
  <path class="fil1" d="M1296 2252c-313,0 -593,-142 -781,-364 100,-189 297,-319 525,-319 13,0 26,2 38,6 70,22 142,37 218,37 77,0 150,-15 219,-37 12,-4 25,-6 37,-6 229,0 426,130 526,319 -188,222 -468,364 -782,364z"/>
  <path class="fil1" d="M1296 417c260,0 470,210 470,469 0,259 -210,470 -470,470 -259,0 -469,-211 -469,-470 0,-259 210,-469 469,-469z"/>
 </g>
</svg>
